<svg xmlns="http://www.w3.org/2000/svg" viewBox="0 0 880 880" width="32" height="32"><g fill-rule="evenodd"><path fill="#cb1b30" stroke="#be192a" stroke-linecap="round" stroke-width="8" d="m202.125 213.89 98.656 5.626 100.063 5.015 77.703 2.36 68.953.03 67.86-1.608 69.327-2.86 128.157-6.266 3.265.188 2.532.703 5 2.672 2.718 2.375 2.797 3.531 2.422 4.235 2.938 7.015 1.547 5.469 2.14 9.984 1 7.063.969 19.187-.328 23.297-1.61 23.156-4.312 32.844-6.781 36.735-7.625 33.546-9.172 33.532L798.922 498l-11.75 32.5-12.11 29.578-11.812 25.438-13.688 25.812-11.312 18.781-7.344 11.125-12.734 17.282-9.344 10.718-9.015 9.22-11.422 10-7.735 5.577-11.14 6.547-10.188 4.344-5.922 1.953-4.187.938-10.969.734-117.672.36-94.265-.266-29.547-.578-5.75-.657-12.797-5.422L371 697.97l-8.313-5.375-14.406-11.688-17.578-17.36-14.906-17.03-16.328-21.47-13.047-19.468-12.531-21.906-9.329-20.047-3.203-3.64-2.937-1.22-4.344-.718-16.406-1.063v-.015L222 555.406l-21.469-3.422-22.812-5.218-22.875-7.36-20.688-9.015-7.953-4.157-11.578-6.718-7.39-5.11-10.61-8.187-12.734-11.86-5.422-5.859-5.203-6.453-9.563-13.516-8.547-15.36-6.234-14.327-4.953-14.625-4.313-17.266-3.203-20.14-1.281-18.735v-17.36l1.312-17.046 3.453-17.453 3.766-12.375 5.89-14.5 8.641-15.313 6.875-9.344 10.72-11.828 9.202-8.218 8.625-6.578 13.703-8.204 9.329-4.5 12.718-4.953 15.89-4.453 9.923-1.578 13.094-1 12.265-.188ZM184.5 283.907l3.063 24.985 3.53 24.39 6.798 36.703 5.812 24.829 6.813 24.984 7.437 24.062 13.578 40.797-6.953-1-9.89-1.922-23.625-6.156-8.079-2.812-10.922-4.391-14.546-7.61-6.563-4.109-7.437-5.64-5.891-5.141-6.984-7.313-4.282-5.14-4.015-5.813-3.297-5.328-4.14-8.14-3.594-8.344-3.594-10.703-4.406-20.156-1.047-10.172-.36-10.563.516-10.562.984-7.375 1.875-6.813 2.531-6.562 3.344-6.844 3.75-5.875 5.11-5.75 6.437-6.156 5.36-3.891 5.875-3.078 12.375-4.922 10.234-2.5 10.516-1.469 9.843-.75 3.281-.015Z"/><path fill="#fff" d="M511.07 377.5c-17.847 36.207-17.847 36.207-22.124 36.78-2.353.316-6.109 1.861-8.347 3.434-2.238 1.573-5.09 4.374-6.336 6.224-1.247 1.85-2.755 5.177-3.352 7.392-.596 2.215-.802 5.914-.456 8.22.346 2.305 1.503 5.906 2.572 8.002 1.942 3.811 1.942 3.811-8.292 24.706a15734.495 15734.495 0 0 1-15.235 31.027c-5 10.131-5 10.131-10.38 11.825-2.958.93-6.558 2.567-8 3.636-1.44 1.068-3.932 3.797-5.535 6.063-2.124 3.003-3.041 5.647-3.381 9.746-.257 3.094.069 7.413.723 9.597.655 2.185 2.75 5.698 4.655 7.807 1.906 2.11 5.124 4.623 7.151 5.585 2.028.962 5.567 1.96 7.865 2.22 2.452.276 6.223-.208 9.127-1.173 2.722-.904 6.408-3.07 8.192-4.814 1.784-1.744 4.107-4.865 5.163-6.934 1.255-2.46 1.92-5.82 1.92-9.702 0-4.594-.645-7.164-2.849-11.354-2.85-5.416-2.85-5.416 11.89-35.536 14.738-30.119 14.738-30.119 18.599-30.746 2.123-.345 6.023-1.588 8.667-2.764 3.878-1.723 5.328-1.931 7.5-1.075 1.481.584 6.136 2.652 10.343 4.595 4.208 1.944 10.958 5.456 15 7.804 4.043 2.348 9.097 6 11.233 8.118 3.883 3.848 3.883 3.848 3.39 10.583-.342 4.672-1.765 9.95-4.649 17.234-2.286 5.775-7.908 18.37-12.494 27.99-8.337 17.49-8.337 17.49-12.587 18.216-2.337.398-6.147 1.837-8.466 3.196-2.32 1.36-5.4 4.187-6.846 6.285-1.446 2.097-3.097 5.92-3.67 8.494-.57 2.575-.754 6.175-.405 8 .348 1.825 1.452 4.958 2.454 6.962 1.002 2.003 3.695 5.246 5.986 7.207 2.756 2.36 5.995 3.974 9.578 4.776 4.67 1.046 6.196.967 11.12-.57 4.019-1.256 6.897-3.016 9.733-5.955 2.215-2.294 4.578-6.008 5.25-8.252.673-2.245 1.223-6.078 1.223-8.519 0-2.783-.977-6.398-2.62-9.697-2.622-5.26-2.622-5.26 4.17-19.446 3.736-7.803 8.986-19.323 11.669-25.6 2.682-6.278 5.808-14.807 6.946-18.954 1.546-5.638 1.955-9.446 1.617-15.087-.308-5.152-1.163-8.93-2.694-11.91-1.234-2.399-4.287-6.348-6.784-8.775-2.497-2.426-7.524-6.17-11.172-8.32-3.648-2.15-12.257-6.658-19.132-10.02-9.814-4.799-12.566-6.586-12.806-8.317-.168-1.212-.793-3.779-1.389-5.704-.595-1.925-1.959-4.749-3.03-6.276-1.948-2.775-1.948-2.775 6.889-20.685l8.836-17.91 25.307 12.32c13.918 6.775 37.024 18.027 51.346 25.005 20.89 10.177 26.926 13.572 30.523 17.17 2.466 2.465 5.685 7.046 7.154 10.18 2.274 4.85 2.67 7.032 2.67 14.696 0 9 0 9-8.597 27-4.728 9.9-20.928 43.383-36 74.406-21.312 43.87-28.362 57.477-31.718 61.22-2.615 2.916-6.753 5.998-10.5 7.82-4.163 2.025-8.31 3.176-12.685 3.522-4.122.327-8.33-.006-11.5-.91-2.75-.783-37.538-17.282-77.307-36.665-51.795-25.244-73.558-36.342-76.714-39.12-2.659-2.34-5.709-6.525-7.692-10.555-2.936-5.964-3.287-7.585-3.287-15.197 0-8.012.275-9.118 4.603-18.521 2.532-5.5 18.942-39.421 36.466-75.38 26.19-53.74 32.617-66.157 36.096-69.736 2.328-2.396 6.772-5.6 9.875-7.12 4.99-2.444 6.77-2.764 15.401-2.764 9.76 0 9.76 0 24.945 7.5l15.185 7.5Zm2.93-10.95V223h20v76.5c0 42.075-.338 76.474-.75 76.441-.412-.032-4.912-2.158-10-4.725L514 366.55Z"/></g></svg>