<?xml version="1.0" encoding="UTF-8"?>
<!-- Generated by Pixelmator Pro 3.2.2 -->
<svg width="880" height="880" viewBox="0 0 880 880" xmlns="http://www.w3.org/2000/svg" xmlns:xlink="http://www.w3.org/1999/xlink">
    <g id="Group">
        <path id="Shape" fill="#cb1b30" fill-rule="evenodd" stroke="#be192a" stroke-width="8" stroke-linecap="round" d="M 202.125 213.890625 L 300.78125 219.515625 L 400.84375 224.53125 L 478.546875 226.890625 L 547.5 226.921875 L 615.359375 225.3125 L 684.6875 222.453125 L 812.84375 216.1875 L 816.109375 216.375 L 818.640625 217.078125 L 823.640625 219.75 L 826.359375 222.125 L 829.15625 225.65625 L 831.578125 229.890625 L 834.515625 236.90625 L 836.0625 242.375 L 838.203125 252.359375 L 839.203125 259.421875 L 840.171875 278.609375 L 839.84375 301.90625 L 838.234375 325.0625 L 833.921875 357.90625 L 827.140625 394.640625 L 819.515625 428.1875 L 810.34375 461.71875 L 798.921875 498 L 787.171875 530.5 L 775.0625 560.078125 L 763.25 585.515625 L 749.5625 611.328125 L 738.25 630.109375 L 730.90625 641.234375 L 718.171875 658.515625 L 708.828125 669.234375 L 699.8125 678.453125 L 688.390625 688.453125 L 680.65625 694.03125 L 669.515625 700.578125 L 659.328125 704.921875 L 653.40625 706.875 L 649.21875 707.8125 L 638.25 708.546875 L 520.578125 708.90625 L 426.3125 708.640625 L 396.765625 708.0625 L 391.015625 707.40625 L 378.21875 701.984375 L 371 697.96875 L 362.6875 692.59375 L 348.28125 680.90625 L 330.703125 663.546875 L 315.796875 646.515625 L 299.46875 625.046875 L 286.421875 605.578125 L 273.890625 583.671875 L 264.5625 563.625 L 261.359375 559.984375 L 258.421875 558.765625 L 254.078125 558.046875 L 237.671875 556.984375 L 237.671875 556.96875 L 222 555.40625 L 200.53125 551.984375 L 177.71875 546.765625 L 154.84375 539.40625 L 134.15625 530.390625 L 126.203125 526.234375 L 114.625 519.515625 L 107.234375 514.40625 L 96.625 506.21875 L 83.890625 494.359375 L 78.46875 488.5 L 73.265625 482.046875 L 63.703125 468.53125 L 55.15625 453.171875 L 48.921875 438.84375 L 43.96875 424.21875 L 39.65625 406.953125 L 36.453125 386.8125 L 35.171875 368.078125 L 35.171875 350.71875 L 36.484375 333.671875 L 39.9375 316.21875 L 43.703125 303.84375 L 49.59375 289.34375 L 58.234375 274.03125 L 65.109375 264.6875 L 75.828125 252.859375 L 85.03125 244.640625 L 93.65625 238.0625 L 107.359375 229.859375 L 116.6875 225.359375 L 129.40625 220.40625 L 145.296875 215.953125 L 155.21875 214.375 L 168.3125 213.375 L 180.578125 213.1875 Z M 184.5 283.90625 L 187.5625 308.890625 L 191.09375 333.28125 L 197.890625 369.984375 L 203.703125 394.8125 L 210.515625 419.796875 L 217.953125 443.859375 L 231.53125 484.65625 L 224.578125 483.65625 L 214.6875 481.734375 L 191.0625 475.578125 L 182.984375 472.765625 L 172.0625 468.375 L 157.515625 460.765625 L 150.953125 456.65625 L 143.515625 451.015625 L 137.625 445.875 L 130.640625 438.5625 L 126.359375 433.421875 L 122.34375 427.609375 L 119.046875 422.28125 L 114.90625 414.140625 L 111.3125 405.796875 L 107.71875 395.09375 L 103.3125 374.9375 L 102.265625 364.765625 L 101.90625 354.203125 L 102.421875 343.640625 L 103.40625 336.265625 L 105.28125 329.453125 L 107.8125 322.890625 L 111.15625 316.046875 L 114.90625 310.171875 L 120.015625 304.421875 L 126.453125 298.265625 L 131.8125 294.375 L 137.6875 291.296875 L 150.0625 286.375 L 160.296875 283.875 L 170.8125 282.40625 L 180.65625 281.65625 L 183.9375 281.640625 Z"/>
        <path id="path1" fill="#ffffff" fill-rule="evenodd" stroke="none" d="M 511.070923 377.5 C 493.223114 413.706726 493.223114 413.706726 488.94574 414.280457 C 486.59317 414.596008 482.837128 416.141205 480.598969 417.714233 C 478.360809 419.287292 475.50946 422.088074 474.262665 423.938202 C 473.015869 425.78833 471.50769 429.114624 470.911163 431.329926 C 470.314636 433.545258 470.109436 437.24411 470.45517 439.549622 C 470.800903 441.855103 471.958038 445.456268 473.026611 447.552216 C 474.969452 451.362976 474.969452 451.362976 464.734741 472.257935 C 459.105621 483.750183 452.25 497.712189 449.5 503.284637 C 444.5 513.416382 444.5 513.416382 439.120575 515.109558 C 436.161865 516.040833 432.561859 517.677063 431.120575 518.745605 C 429.67926 519.814209 427.188324 522.542786 425.585175 524.809204 C 423.461151 527.811951 422.543793 530.455933 422.203888 534.555054 C 421.947327 537.648804 422.272919 541.96759 422.92746 544.152222 C 423.582001 546.336914 425.676666 549.850098 427.582275 551.959351 C 429.487854 554.068604 432.705841 556.581604 434.733337 557.543701 C 436.760803 558.505798 440.299988 559.504883 442.598145 559.763916 C 445.050354 560.040344 448.821075 559.555908 451.725281 558.591248 C 454.447052 557.687256 458.133423 555.52063 459.917206 553.776672 C 461.700989 552.032715 464.024353 548.912476 465.080231 546.842773 C 466.335266 544.38269 467 541.02356 467 537.141357 C 467 532.547241 466.355133 529.977173 464.15097 525.786987 C 461.301941 520.370972 461.301941 520.370972 476.040588 490.251495 C 490.779266 460.13205 490.779266 460.13205 494.639618 459.505188 C 496.762817 459.1604 500.663208 457.916748 503.307098 456.741486 C 507.185272 455.017578 508.634583 454.809753 510.807098 455.666077 C 512.288208 456.249878 516.942688 458.31781 521.150391 460.261475 C 525.358093 462.205139 532.108093 465.716553 536.150391 468.064636 C 540.192688 470.41272 545.247437 474.065765 547.38324 476.182526 C 551.266479 480.031219 551.266479 480.031219 550.773376 486.765594 C 550.431274 491.437927 549.007629 496.715088 546.124023 504 C 543.838074 509.774994 538.215881 522.370483 533.630249 531.98999 C 525.292725 549.480042 525.292725 549.480042 521.043091 550.205505 C 518.705872 550.604492 514.895874 552.04303 512.576599 553.402222 C 510.257263 554.761475 507.176544 557.589478 505.73053 559.686768 C 504.284515 561.784058 502.633636 565.606445 502.06192 568.18103 C 501.490204 570.755615 501.307343 574.355652 501.655579 576.18103 C 502.003784 578.00647 503.108215 581.13916 504.109863 583.142578 C 505.111511 585.145996 507.805176 588.389282 510.095795 590.349976 C 512.852417 592.709595 516.09082 594.324463 519.673828 595.126343 C 524.344055 596.171509 525.870483 596.09314 530.793579 594.555481 C 534.812988 593.30011 537.690613 591.539917 540.527344 588.60144 C 542.742371 586.306885 545.104919 582.593262 545.777344 580.348755 C 546.449829 578.10437 547 574.270996 547 571.830322 C 547 569.046753 546.023132 565.432312 544.37915 562.133301 C 541.75824 556.873901 541.75824 556.873901 548.55011 542.686951 C 552.285583 534.884155 557.536499 523.364014 560.218811 517.08667 C 562.901123 510.809387 566.026672 502.279999 567.164551 498.132538 C 568.711121 492.495178 569.119507 488.68692 568.782349 483.045837 C 568.474426 477.89447 567.619324 474.115448 566.087585 471.136841 C 564.853577 468.737091 561.800964 464.788177 559.304077 462.36145 C 556.807129 459.934723 551.779785 456.190643 548.13208 454.04126 C 544.484436 451.891876 535.875 447.382782 529 444.021027 C 519.186157 439.222198 516.434326 437.435028 516.194275 435.704376 C 516.026123 434.491974 515.401123 431.924988 514.805481 430 C 514.209778 428.075012 512.846008 425.250977 511.774841 423.724365 C 509.827301 420.94873 509.827301 420.94873 518.663635 403.039307 L 527.5 385.129913 L 552.806763 397.448608 C 566.725464 404.223877 589.831238 415.476105 604.152954 422.453552 C 625.043518 432.631287 631.078979 436.026337 634.676025 439.623383 C 637.142029 442.089386 640.361206 446.670441 641.829834 449.803497 C 644.103638 454.654419 644.5 456.835968 644.5 464.5 C 644.5 473.5 644.5 473.5 635.902954 491.5 C 631.174561 501.399994 614.974548 534.882935 599.902954 565.906494 C 578.59082 609.775513 571.540894 623.382751 568.184814 627.125916 C 565.570374 630.041992 561.432068 633.124146 557.684814 634.946289 C 553.521729 636.970703 549.375244 638.122009 545 638.468445 C 540.878113 638.7948 536.670654 638.461975 533.5 637.558655 C 530.75 636.775208 495.961639 620.275513 456.192566 600.892578 C 404.398438 575.648926 382.635193 564.550781 379.479309 561.772827 C 376.820313 559.432373 373.770355 555.247681 371.786743 551.218384 C 368.850586 545.25415 368.5 543.633179 368.5 536.020996 C 368.5 528.008667 368.77478 526.903076 373.103241 517.5 C 375.63501 512 392.0448 478.078705 409.569427 442.119324 C 435.75943 388.37915 442.185974 375.963287 445.66507 372.383545 C 447.993073 369.98822 452.436707 366.784485 455.539825 365.264221 C 460.529694 362.819519 462.309906 362.5 470.941071 362.5 C 480.700287 362.5 480.700287 362.5 495.88562 370 L 511.070923 377.5 Z M 514 366.549622 L 514 223 L 524 223 L 534 223 L 534 299.5 C 534 341.575012 533.662476 375.973633 533.25 375.941376 C 532.837524 375.909119 528.337524 373.782806 523.25 371.216187 L 514 366.549622 Z"/>
    </g>
</svg>
